<?xml version="1.0" encoding="UTF-8"?>
<svg width="255px" height="57px" viewBox="0 0 255 57" version="1.1" xmlns="http://www.w3.org/2000/svg" xmlns:xlink="http://www.w3.org/1999/xlink">
    <g id="Page-1" stroke="none" stroke-width="1" fill="none" fill-rule="evenodd">
        <g class="header-logo-path" id="Group" transform="translate(0.000156, 0.421769)" fill-rule="nonzero">
            <g id="Codakuma" transform="translate(0.000000, 0.000000)">
                <path d="M22.492025,51.2700918 C28.8678319,49.3279712 33.0140504,44.925846 33.6931658,39.6146657 C33.794495,38.6905447 33.753684,37.8862854 33.5118082,37.0922288 C32.9426886,35.2238605 31.250675,34.3610956 29.2655337,34.9657852 C27.7708391,35.4210809 27.075442,36.321987 26.8352009,38.1306339 C26.3486809,41.9794611 24.1771217,44.4019242 20.6272219,45.4832514 C15.2323084,47.1265842 10.4942318,43.7207387 8.30312138,36.5275207 C6.14046694,29.4277211 8.2148207,23.9212345 13.5396704,22.2992437 C16.9027334,21.2748284 20.1850123,22.1636177 22.7721734,25.1272209 C24.0408549,26.5272813 25.2585227,26.9220176 26.8466358,26.438266 C28.7150041,25.8691464 29.5899844,24.3010199 29.0279788,22.4560062 C28.771875,21.6152404 28.2608831,20.7755508 27.5234593,20.0303558 C23.7316425,15.8768836 17.9968509,14.5611561 11.6911079,16.4819347 C1.99894724,19.4342426 -2.19099025,27.8820949 1.11701736,38.7419857 C4.43213896,49.6252312 12.4962545,54.3148816 22.492025,51.2700918 Z" id="Path"></path>
                <path d="M53.2513537,43.485343 C60.9971129,41.8810403 64.9208213,35.9073898 63.1729237,27.4683373 C61.4497838,19.1488182 55.3895586,15.1682445 47.7155194,16.7576925 C40.0414803,18.3471404 36.0658581,24.4312723 37.7840464,32.7268848 C39.5269925,41.1420305 45.5055946,45.0896456 53.2513537,43.485343 Z M52.1471578,38.1541569 C48.7045982,38.8671802 45.9299541,36.425065 44.8653705,31.2851323 C43.8106901,26.1930128 45.4249691,22.7919989 48.8197154,22.0888786 C52.2144617,21.3857583 55.0229156,23.8707353 56.077596,28.9628547 C57.1421795,34.1027875 55.5658108,37.446085 52.1471578,38.1541569 Z" id="Shape"></path>
                <path d="M79.6418471,39.0040118 C83.6398895,38.5110397 86.2421525,36.0746617 87.0224636,33.0265721 L87.1436164,33.0116336 L87.3288544,34.5139283 C87.62165,36.8885232 89.2975608,37.9118254 91.3329278,37.6608578 C93.3925254,37.4069024 94.6939858,35.9918813 94.4041779,33.641517 L90.8637414,4.9283034 C90.5649704,2.5052474 88.9527882,1.40029033 86.86896,1.6572334 C84.8093624,1.91118877 83.4896469,3.37765876 83.7884179,5.80071476 L85.055207,16.0744722 L84.9098237,16.0923984 C83.294297,13.3643227 80.1416376,11.735942 76.3859008,12.1990371 C69.8678802,13.0027311 66.3790918,18.62329 67.3949133,26.8616804 C68.4196979,35.1727625 73.148057,39.8047182 79.6418471,39.0040118 Z M81.3385607,33.0140469 C77.7766683,33.4532403 75.234405,30.7902365 74.6458261,26.0168162 C74.0602349,21.2676264 75.873497,18.0183736 79.4353893,17.5791802 C82.9488205,17.1459623 85.5727386,19.8726947 86.1553421,24.5976539 C86.7409333,29.3468436 84.8519919,32.580829 81.3385607,33.0140469 Z" id="Shape"></path>
                <path d="M107.794895,36.538689 C111.063594,36.4037063 114.264801,34.6343743 115.613561,31.7931013 L115.759921,31.7870573 L115.815324,33.1286873 C116.048314,35.2204647 117.434267,36.2383653 119.361336,36.158786 C121.385977,36.0751773 122.774813,34.796081 122.677102,32.4299336 L122.061621,17.5256443 C121.844037,12.2566975 117.3346,8.97316556 110.62645,9.25018229 C105.211144,9.47381034 101.09508,11.5741402 100.004356,14.7468457 C99.7825842,15.2935711 99.6817718,15.8108664 99.7049405,16.3719117 C99.7714245,17.9818677 101.061819,19.0525842 102.793741,18.9810635 C103.940225,18.9337188 104.824644,18.4573686 105.568965,17.5469761 C107.069911,15.4324646 108.357935,14.6706636 110.528937,14.581011 C113.212196,14.4702043 114.978151,15.8145007 115.078884,18.2538279 L115.150405,19.9857502 L108.580339,20.6480227 C102.059059,21.3082804 98.513897,24.2158202 98.7103271,28.9725083 C98.9047424,33.6804098 102.818668,36.744185 107.794895,36.538689 Z M109.924102,31.2950045 C107.533561,31.3937232 105.873239,30.2405436 105.792652,28.2890818 C105.716095,26.4351932 107.179118,25.1774681 109.829926,24.8725226 L115.328703,24.3033594 L115.407275,26.2060346 C115.524126,29.0356542 113.046441,31.1660658 109.924102,31.2950045 Z" id="Shape"></path>
                <path d="M131.609216,36.2613808 C133.707626,36.3323459 135.214542,35.1130506 135.29706,32.6730392 L135.476123,27.3782146 L137.816299,25.3565462 L144.225966,34.4651108 C145.291434,36.1866767 146.127284,36.7523603 147.640091,36.8035212 C149.6409,36.8711856 151.076266,35.6006145 151.14063,33.6974057 C151.171987,32.7702014 150.97384,32.1283718 150.228519,31.0527613 L143.247277,21.5095906 L150.121403,15.4396343 C151.17839,14.5226873 151.517871,13.8746115 151.554179,12.8010065 C151.613592,11.0441983 150.31697,9.65680744 148.486961,9.59491927 C147.413357,9.55861154 146.594125,9.94618267 145.608688,10.9144055 L135.820451,20.0858814 L135.72285,20.0825807 L136.271592,3.85650532 C136.35411,1.41649398 134.933837,0.0737774311 132.835428,0.00281232498 C130.761418,-0.0673276055 129.229277,1.17554269 129.146759,3.61555403 L128.172227,32.4320879 C128.089709,34.8720993 129.535207,36.1912409 131.609216,36.2613808 Z" id="Path"></path>
                <path d="M164.440021,38.3713093 C168.371941,38.7986794 171.15045,37.1851698 172.792961,34.0483881 L172.938588,34.0642166 L172.764474,35.6661101 C172.508579,38.0204081 173.75749,39.4086058 175.796264,39.6302051 C177.835038,39.8518045 179.353033,38.7643486 179.608928,36.4100506 L181.756331,16.6533643 C182.020139,14.226253 180.703691,12.7815988 178.616375,12.5547233 C176.553331,12.3304859 174.932974,13.4559316 174.669166,15.8830429 L173.39497,27.6059907 C173.020361,31.0524888 170.809059,33.0960173 167.653814,32.753066 C164.522841,32.4127528 163.000086,30.380844 163.377333,26.9100748 L164.693738,14.7987892 C164.957547,12.3716779 163.641098,10.9270236 161.553783,10.7001481 C159.490738,10.4759107 157.870382,11.6013565 157.606573,14.0284678 L156.129244,27.6202913 C155.469722,33.6880696 158.809123,37.7592731 164.440021,38.3713093 Z" id="Path"></path>
                <path d="M187.720629,41.6555848 C189.778271,42.07328 191.471252,41.0966136 191.952087,38.7279328 L194.458258,26.3820813 C195.041089,23.5109531 197.243525,21.8654324 199.899319,22.4045506 C202.483334,22.929098 203.708258,24.8717706 203.149712,27.6232685 L200.541546,40.4715674 C200.060711,42.8402482 201.095302,44.3706036 203.152943,44.7882988 C205.234511,45.2108509 206.783936,44.205043 207.264771,41.8363622 L209.79037,29.3948065 C210.368344,26.5476043 212.508357,24.9641479 215.164151,25.5032662 C217.867797,26.0520982 219.020942,27.9802 218.418684,30.9470325 L215.85423,43.5799968 C215.373395,45.9486777 216.527616,47.5033176 218.585258,47.9210128 C220.666826,48.343565 222.359807,47.3668986 222.840642,44.9982178 L225.759651,30.6186504 C226.808746,25.4506196 224.134567,21.3204398 219.110093,20.3004864 C215.3537,19.5379498 211.878325,20.9499798 210.074189,23.9468669 L209.930633,23.9177253 C209.749263,20.3932266 207.553802,17.9545936 203.845261,17.2017708 C200.352055,16.4926604 197.187719,17.9678303 195.484503,20.8357317 L195.340946,20.8065902 L195.66636,19.2035436 C196.142338,16.8587889 195.002329,15.3568579 193.016466,14.9537335 C191.030602,14.5506091 189.395187,15.4891372 188.919209,17.8338919 L184.965675,37.3097119 C184.48484,39.6783927 185.639061,41.2330327 187.720629,41.6555848 Z" id="Path"></path>
                <path d="M234.305656,52.1277287 C237.445402,53.0467503 241.04466,52.3958985 243.232371,50.1362729 L243.372956,50.1774231 L242.995746,51.4661251 C242.546512,53.5223366 243.533446,54.9305086 245.38449,55.4723198 C247.329259,56.0415645 249.054603,55.274661 249.719865,53.0018593 L253.910329,38.6855515 C255.391737,33.6244673 252.171486,29.0696248 245.727976,27.1835731 C240.526306,25.661015 235.954372,26.3324201 233.904954,28.9886627 C233.51976,29.4355598 233.258579,29.8933178 233.100837,30.4322296 C232.648185,31.978672 233.527678,33.4062723 235.191275,33.8932166 C236.292529,34.21556 237.282925,34.0475626 238.279617,33.4235164 C240.378731,31.901111 241.842895,31.5919656 243.928249,32.2023605 C246.505653,32.9567811 247.748034,34.7958619 247.062197,37.1389564 L246.575253,38.8025536 L240.139163,37.3256889 C233.749936,35.8625409 229.460298,37.4814823 228.122916,42.0505167 C226.799251,46.5726892 229.525743,50.7286213 234.305656,52.1277287 Z M238.002142,47.8422027 C235.70591,47.1700825 234.502386,45.5458828 235.051055,43.6714071 C235.572291,41.8906553 237.36107,41.1677579 239.96991,41.7278726 L245.361321,42.9498309 L244.826368,44.7774447 C244.030797,47.4954344 241.001303,48.720074 238.002142,47.8422027 Z" id="Shape"></path>
            </g>
        </g>
    </g>
</svg>